# xmcd
#
# Track frame offsets:
#	150
#	16331
#	34592
#	48600
#	63156
#	77667
#	91802
#	107015
#	124158
#	138709
#	153345
#	169240
#	184990
#	198131
#	213244
#	228776
#
# Disc length: 3283 seconds
#
# Revision: 0
# Processed by: cddbd v1.5.2PL0 Copyright (c) Steve Scherf et al.
# Submitted via: EasyCDDAExtractor 11.9.9.666
#
DISCID=ce0cd110
DTITLE=Toque de Magia - Cartas Sobre a Mesa
DYEAR=1900
DGENRE=Other
TTITLE0=Esse amor
TTITLE1=Você
TTITLE2=Cartas Sobre a Mesa
TTITLE3=Vício
TTITLE4=Que se dane
TTITLE5=Foi embora o meu amor
TTITLE6=Só falta você
TTITLE7=Sublime miragem
TTITLE8=A dor da indiferença
TTITLE9=Tá difícil de voltar
TTITLE10=Eu posso te fazer feliz
TTITLE11=Sonho que virou ternura
TTITLE12=Quando a gente se ama
TTITLE13=A menina da rua debaixo
TTITLE14=Tudo passa
TTITLE15=Eu o copo e a solidão
EXTD=
EXTT0=
EXTT1=
EXTT2=
EXTT3=
EXTT4=
EXTT5=
EXTT6=
EXTT7=
EXTT8=
EXTT9=
EXTT10=
EXTT11=
EXTT12=
EXTT13=
EXTT14=
EXTT15=
PLAYORDER=
